<svg xmlns="http://www.w3.org/2000/svg" xmlns:xlink="http://www.w3.org/1999/xlink"
    width="24" height="72" viewport="0 0 24 72">
    <style>
        path { fill: #fff; }
    </style>
    <symbol id="code" viewBox="0 0 24 24">
    <path d="M22,10.7l0,2.6l-0.8,0.2c-0.5,0.1 -0.8,0.3 -1,0.6c-0.2,0.2 -0.2,0.4 -0.2,0.5l0,3.5c0,0.4 -0.1,0.9 -0.4,1.4c-0.5,1 -1.4,1.6 -2.6,1.6l-1,0l0,-2l1,0c0.5,0 0.7,-0.1 0.9,-0.4c0.1,-0.2 0.1,-0.4 0.1,-0.6l0,-3.5c0,-0.5 0.2,-1.1 0.7,-1.7c0.2,-0.3 0.6,-0.6 0.9,-0.8c-0.4,-0.2 -0.7,-0.5 -0.9,-0.8c-0.5,-0.6 -0.7,-1.2 -0.7,-1.7l0,-3.6c0,-0.5 -0.1,-0.7 -0.4,-0.9c-0.2,-0.1 -0.4,-0.1 -0.6,-0.1l-1,0l0,-2l1,0c0.4,0 0.9,0.1 1.4,0.4c1,0.5 1.6,1.4 1.6,2.6l0,3.5c0,0.1 0.1,0.3 0.2,0.5c0.2,0.2 0.5,0.4 1,0.6l0.8,0.1ZM5.6,3.4c-1,0.5 -1.6,1.4 -1.6,2.6l0,3.5c0,0.1 -0.1,0.3 -0.2,0.5c-0.2,0.2 -0.5,0.4 -1,0.6l-0.8,0.2l0,2.6l0.8,0.2c0.5,0.1 0.8,0.3 1,0.6c0.2,0.2 0.2,0.4 0.2,0.5l0,3.5c0,0.4 0.1,0.9 0.4,1.4c0.5,1 1.4,1.6 2.6,1.6l1,0l0,-2l-1,0c-0.5,0 -0.7,-0.1 -0.9,-0.4c-0.1,-0.2 -0.1,-0.4 -0.1,-0.6l0,-3.5c0,-0.5 -0.2,-1.1 -0.7,-1.7c-0.2,-0.3 -0.6,-0.6 -0.9,-0.8c0.4,-0.2 0.7,-0.5 0.9,-0.8c0.5,-0.6 0.7,-1.2 0.7,-1.7l0,-3.7c0,-0.5 0.1,-0.7 0.4,-0.9c0.2,-0.1 0.4,-0.1 0.6,-0.1l1,0l0,-2l-1,0c-0.4,0 -0.9,0.1 -1.4,0.4Z"/>
    </symbol>
    <symbol id="download" viewBox="0 0 24 24">
    <path d="M18,13l-6,6l-6-6h4V6h4v7H18z M2,20.01C2,21.1,2.89,22,3.99,22h16.02C21.1,22,22,21.11,22,20.01V3.99 C22,2.9,21.11,2,20.01,2H3.99C2.9,2,2,2.89,2,3.99V20.01z"/>
    </symbol>
    <symbol id="star" viewBox="0 0 24 24">
    <polygon fill="#555" points="12.0500031 18.375 5.43741896 21.8514412 6.70031015 14.4882206 1.35061724 9.27355881 8.74371101 8.19927941 12.0500031 1.5 15.3562951 8.19927941 22.7493889 9.27355881 17.399696 14.4882206 18.6625871 21.8514412"></polygon>
    </symbol>
    <use xlink:href="#code" y="0" width="24" height="24"/>
    <use xlink:href="#download" y="24" width="24" height="24"/>
    <use xlink:href="#star" y="48" width="24" height="24"/>
</svg>


