<svg xmlns="http://www.w3.org/2000/svg"
     width="214" height="104" viewBox="0 0 214 104" >
    <path d="M8.648,90.952L6.68,81.784L4.736,90.952L8.648,90.952ZM12.08,97L9.944,97L9.032,92.752L4.352,92.752L3.416,97L1.28,97L5.336,80.2L8.096,80.2L12.08,97ZM25.528,92.92C25.528,94.28 25.156,95.3 24.412,95.98C23.668,96.66 22.6,97 21.208,97L20.608,97C19.216,97 18.148,96.66 17.404,95.98C16.66,95.3 16.288,94.28 16.288,92.92L16.288,80.2L18.376,80.2L18.376,93.376C18.376,93.872 18.56,94.296 18.928,94.648C19.296,95 19.776,95.176 20.368,95.176L21.448,95.176C22.04,95.176 22.52,95 22.888,94.648C23.256,94.296 23.44,93.872 23.44,93.376L23.44,80.2L25.528,80.2L25.528,92.92ZM40.008,82.024L36.192,82.024L36.192,97L34.104,97L34.104,82.024L30.288,82.024L30.288,80.2L40.008,80.2L40.008,82.024ZM54.2,92.92C54.2,94.28 53.828,95.3 53.084,95.98C52.34,96.66 51.272,97 49.88,97L48.92,97C47.528,97 46.46,96.66 45.716,95.98C44.972,95.3 44.6,94.28 44.6,92.92L44.6,84.28C44.6,82.92 44.972,81.9 45.716,81.22C46.46,80.54 47.528,80.2 48.92,80.2L49.88,80.2C51.272,80.2 52.34,80.54 53.084,81.22C53.828,81.9 54.2,82.92 54.2,84.28L54.2,92.92ZM52.112,93.376L52.112,83.824C52.112,83.328 51.928,82.904 51.56,82.552C51.192,82.2 50.712,82.024 50.12,82.024L48.68,82.024C48.088,82.024 47.608,82.2 47.24,82.552C46.872,82.904 46.688,83.328 46.688,83.824L46.688,93.376C46.688,93.872 46.872,94.296 47.24,94.648C47.608,95 48.088,95.176 48.68,95.176L50.12,95.176C50.712,95.176 51.192,95 51.56,94.648C51.928,94.296 52.112,93.872 52.112,93.376ZM68.872,97L67,97L67,81.928L64.6,91.36L62.608,91.36L60.256,81.928L60.256,97L58.432,97L58.432,80.2L61.768,80.2L63.688,88.792L65.632,80.2L68.872,80.2L68.872,97ZM79.848,90.952L77.88,81.784L75.936,90.952L79.848,90.952ZM83.28,97L81.144,97L80.232,92.752L75.552,92.752L74.616,97L72.48,97L76.536,80.2L79.296,80.2L83.28,97ZM96.968,82.024L93.152,82.024L93.152,97L91.064,97L91.064,82.024L87.248,82.024L87.248,80.2L96.968,80.2L96.968,82.024ZM110.368,97L102.352,97L102.352,80.2L110.368,80.2L110.368,81.952L104.44,81.952L104.44,87.448L109.768,87.448L109.768,89.2L104.44,89.2L104.44,95.248L110.368,95.248L110.368,97ZM138.896,92.92C138.896,94.28 138.524,95.3 137.78,95.98C137.036,96.66 135.968,97 134.576,97L131.168,97L131.168,95.176L134.816,95.176C135.408,95.176 135.888,95 136.256,94.648C136.624,94.296 136.808,93.872 136.808,93.376L136.808,90.88C136.808,90.4 136.684,90.012 136.436,89.716C136.188,89.42 135.816,89.272 135.32,89.272L134.6,89.272C133.416,89.272 132.48,88.924 131.792,88.228C131.104,87.532 130.76,86.52 130.76,85.192L130.76,84.28C130.76,82.92 131.132,81.9 131.876,81.22C132.62,80.54 133.688,80.2 135.08,80.2L138.512,80.2L138.512,82.024L134.84,82.024C134.248,82.024 133.768,82.2 133.4,82.552C133.032,82.904 132.848,83.328 132.848,83.824L132.848,85.648C132.848,86.144 133.008,86.556 133.328,86.884C133.648,87.212 134.064,87.376 134.576,87.376L135.296,87.376C136.432,87.376 137.316,87.704 137.948,88.36C138.58,89.016 138.896,90.008 138.896,91.336L138.896,92.92ZM146.632,97L144.544,97L144.544,80.2L146.632,80.2L146.632,87.448L151.192,80.2L153.472,80.2L148.84,87.616L153.76,97L151.36,97L147.544,89.44L146.632,90.808L146.632,97ZM167.328,97L159.312,97L159.312,80.2L167.328,80.2L167.328,81.952L161.4,81.952L161.4,87.448L166.728,87.448L166.728,89.2L161.4,89.2L161.4,95.248L167.328,95.248L167.328,97ZM182.408,82.024L178.592,82.024L178.592,97L176.504,97L176.504,82.024L172.688,82.024L172.688,80.2L182.408,80.2L182.408,82.024ZM195.664,97L192.256,97C190.864,97 189.796,96.66 189.052,95.98C188.308,95.3 187.936,94.28 187.936,92.92L187.936,84.28C187.936,82.92 188.308,81.9 189.052,81.22C189.796,80.54 190.864,80.2 192.256,80.2L195.664,80.2L195.664,82.024L192.016,82.024C191.424,82.024 190.944,82.2 190.576,82.552C190.208,82.904 190.024,83.328 190.024,83.824L190.024,93.376C190.024,93.872 190.208,94.296 190.576,94.648C190.944,95 191.424,95.176 192.016,95.176L195.664,95.176L195.664,97ZM210.6,97L208.512,97L208.512,89.272L203.568,89.272L203.568,97L201.48,97L201.48,80.2L203.568,80.2L203.568,87.496L208.512,87.496L208.512,80.2L210.6,80.2L210.6,97Z" style="fill:#000;fill-opacity:0.8;"/>
    <path d="M108.257,60.35L139,20L130,8.898L119,4L95,4L84,8.898L75,20L105.743,60.35L105.91,60.569L107,62L108.09,60.569L108.257,60.35ZM97.659,18L116.341,18L121.483,30L92.516,30L97.659,18ZM123.778,31.661L133.304,24.176L113.74,49.853L123.778,31.661ZM107,57.93L92.694,32L121.306,32L107,57.93ZM90.222,31.661L100.26,49.853L80.696,24.176L90.222,31.661ZM136.019,19.499L123.406,29.409L118.267,17.419L129.175,11.056L136.019,19.499ZM127.251,9.863L116.73,16L97.27,16L86.749,9.863L95.425,6L118.575,6L127.251,9.863ZM84.825,11.056L95.733,17.419L90.594,29.409L77.981,19.499L84.825,11.056Z" style="fill:#fa0;"/>
</svg>