<?xml version="1.0" encoding="UTF-8"?>
<svg width="214px" height="104px" viewBox="0 0 214 104" version="1.1" xmlns="http://www.w3.org/2000/svg" xmlns:xlink="http://www.w3.org/1999/xlink">
    <path d="M8.64799843,90.952 L6.67999843,81.784 L4.73599843,90.952 L8.64799843,90.952 Z M12.0799984,97 L9.94399843,97 L9.03199843,92.752 L4.35199843,92.752 L3.41599843,97 L1.27999843,97 L5.33599843,80.2 L8.09599843,80.2 L12.0799984,97 Z M25.5279986,92.92 C25.5279986,94.2800068 25.1560024,95.2999966 24.4119986,95.98 C23.6679949,96.6600034 22.6000056,97 21.2079986,97 L20.6079986,97 C19.2159917,97 18.1480024,96.6600034 17.4039986,95.98 C16.6599949,95.2999966 16.2879986,94.2800068 16.2879986,92.92 L16.2879986,80.2 L18.3759986,80.2 L18.3759986,93.376 C18.3759986,93.8720025 18.5599968,94.2959982 18.9279986,94.648 C19.2960005,95.0000018 19.7759957,95.176 20.3679986,95.176 L21.4479986,95.176 C22.0400016,95.176 22.5199968,95.0000018 22.8879986,94.648 C23.2560005,94.2959982 23.4399986,93.8720025 23.4399986,93.376 L23.4399986,80.2 L25.5279986,80.2 L25.5279986,92.92 Z M40.0079988,82.024 L36.1919988,82.024 L36.1919988,97 L34.1039988,97 L34.1039988,82.024 L30.2879988,82.024 L30.2879988,80.2 L40.0079988,80.2 L40.0079988,82.024 Z M54.1999991,92.92 C54.1999991,94.2800068 53.8280028,95.2999966 53.0839991,95.98 C52.3399953,96.6600034 51.272006,97 49.8799991,97 L48.9199991,97 C47.5279921,97 46.4600028,96.6600034 45.7159991,95.98 C44.9719953,95.2999966 44.5999991,94.2800068 44.5999991,92.92 L44.5999991,84.28 C44.5999991,82.9199932 44.9719953,81.9000034 45.7159991,81.22 C46.4600028,80.5399966 47.5279921,80.2 48.9199991,80.2 L49.8799991,80.2 C51.272006,80.2 52.3399953,80.5399966 53.0839991,81.22 C53.8280028,81.9000034 54.1999991,82.9199932 54.1999991,84.28 L54.1999991,92.92 Z M52.1119991,93.376 L52.1119991,83.824 C52.1119991,83.3279975 51.9280009,82.9040018 51.5599991,82.552 C51.1919972,82.1999982 50.712002,82.024 50.1199991,82.024 L48.6799991,82.024 C48.0879961,82.024 47.6080009,82.1999982 47.2399991,82.552 C46.8719972,82.9040018 46.6879991,83.3279975 46.6879991,83.824 L46.6879991,93.376 C46.6879991,93.8720025 46.8719972,94.2959982 47.2399991,94.648 C47.6080009,95.0000018 48.0879961,95.176 48.6799991,95.176 L50.1199991,95.176 C50.712002,95.176 51.1919972,95.0000018 51.5599991,94.648 C51.9280009,94.2959982 52.1119991,93.8720025 52.1119991,93.376 L52.1119991,93.376 Z M68.8719993,97 L66.9999993,97 L66.9999993,81.928 L64.5999993,91.36 L62.6079993,91.36 L60.2559993,81.928 L60.2559993,97 L58.4319993,97 L58.4319993,80.2 L61.7679993,80.2 L63.6879993,88.792 L65.6319993,80.2 L68.8719993,80.2 L68.8719993,97 Z M79.8479995,90.952 L77.8799995,81.784 L75.9359995,90.952 L79.8479995,90.952 Z M83.2799995,97 L81.1439995,97 L80.2319995,92.752 L75.5519995,92.752 L74.6159995,97 L72.4799995,97 L76.5359995,80.2 L79.2959995,80.2 L83.2799995,97 Z M96.9679997,82.024 L93.1519997,82.024 L93.1519997,97 L91.0639997,97 L91.0639997,82.024 L87.2479997,82.024 L87.2479997,80.2 L96.9679997,80.2 L96.9679997,82.024 Z M110.368,97 L102.352,97 L102.352,80.2 L110.368,80.2 L110.368,81.952 L104.44,81.952 L104.44,87.448 L109.768,87.448 L109.768,89.2 L104.44,89.2 L104.44,95.248 L110.368,95.248 L110.368,97 Z M138.896,92.92 C138.896,94.2800068 138.524004,95.2999966 137.78,95.98 C137.035997,96.6600034 135.968007,97 134.576,97 L131.168,97 L131.168,95.176 L134.816,95.176 C135.408003,95.176 135.887998,95.0000018 136.256,94.648 C136.624002,94.2959982 136.808,93.8720025 136.808,93.376 L136.808,90.88 C136.808,90.3999976 136.684002,90.0120015 136.436,89.716 C136.187999,89.4199985 135.816003,89.272 135.32,89.272 L134.6,89.272 C133.415994,89.272 132.480004,88.9240035 131.792,88.228 C131.103997,87.5319965 130.76,86.5200066 130.76,85.192 L130.76,84.28 C130.76,82.9199932 131.131997,81.9000034 131.876,81.22 C132.620004,80.5399966 133.687993,80.2 135.08,80.2 L138.512,80.2 L138.512,82.024 L134.84,82.024 C134.247997,82.024 133.768002,82.1999982 133.4,82.552 C133.031998,82.9040018 132.848,83.3279975 132.848,83.824 L132.848,85.648 C132.848,86.1440025 133.007999,86.5559984 133.328,86.884 C133.648002,87.2120016 134.063998,87.376 134.576,87.376 L135.296,87.376 C136.432006,87.376 137.315997,87.7039967 137.948,88.36 C138.580003,89.0160033 138.896,90.0079934 138.896,91.336 L138.896,92.92 Z M146.632001,97 L144.544001,97 L144.544001,80.2 L146.632001,80.2 L146.632001,87.448 L151.192001,80.2 L153.472001,80.2 L148.840001,87.616 L153.760001,97 L151.360001,97 L147.544001,89.44 L146.632001,90.808 L146.632001,97 Z M167.328001,97 L159.312001,97 L159.312001,80.2 L167.328001,80.2 L167.328001,81.952 L161.400001,81.952 L161.400001,87.448 L166.728001,87.448 L166.728001,89.2 L161.400001,89.2 L161.400001,95.248 L167.328001,95.248 L167.328001,97 Z M182.408001,82.024 L178.592001,82.024 L178.592001,97 L176.504001,97 L176.504001,82.024 L172.688001,82.024 L172.688001,80.2 L182.408001,80.2 L182.408001,82.024 Z M195.664001,97 L192.256001,97 C190.863994,97 189.796005,96.6600034 189.052001,95.98 C188.307997,95.2999966 187.936001,94.2800068 187.936001,92.92 L187.936001,84.28 C187.936001,82.9199932 188.307997,81.9000034 189.052001,81.22 C189.796005,80.5399966 190.863994,80.2 192.256001,80.2 L195.664001,80.2 L195.664001,82.024 L192.016001,82.024 C191.423998,82.024 190.944003,82.1999982 190.576001,82.552 C190.207999,82.9040018 190.024001,83.3279975 190.024001,83.824 L190.024001,93.376 C190.024001,93.8720025 190.207999,94.2959982 190.576001,94.648 C190.944003,95.0000018 191.423998,95.176 192.016001,95.176 L195.664001,95.176 L195.664001,97 Z M210.600001,97 L208.512001,97 L208.512001,89.272 L203.568001,89.272 L203.568001,97 L201.480001,97 L201.480001,80.2 L203.568001,80.2 L203.568001,87.496 L208.512001,87.496 L208.512001,80.2 L210.600001,80.2 L210.600001,97 Z" fill-opacity="0.8" fill="#000000"></path>
    <path d="M108.257,60.35 L139,20 L130,8.898 L119,4 L95,4 L84,8.898 L75,20 L105.743,60.35 L105.91,60.569 L107,62 L108.09,60.569 L108.257,60.35 L108.257,60.35 Z M97.659,18 L116.341,18 L121.483,30 L92.516,30 L97.659,18 L97.659,18 Z M123.778,31.661 L133.304,24.176 L113.74,49.853 L123.778,31.661 L123.778,31.661 Z M107,57.93 L92.694,32 L121.306,32 L107,57.93 L107,57.93 Z M90.222,31.661 L100.26,49.853 L80.696,24.176 L90.222,31.661 L90.222,31.661 Z M136.019,19.499 L123.406,29.409 L118.267,17.419 L129.175,11.056 L136.019,19.499 L136.019,19.499 Z M127.251,9.863 L116.73,16 L97.27,16 L86.749,9.863 L95.425,6 L118.575,6 L127.251,9.863 L127.251,9.863 Z M84.825,11.056 L95.733,17.419 L90.594,29.409 L77.981,19.499 L84.825,11.056 L84.825,11.056 Z" fill="#FFAA00"></path>
</svg>